<?xml version="1.0" encoding="utf-8"?>

<!-- The icon can be used freely in both personal and commercial projects with no attribution required, but always appreciated. 
You may NOT sub-license, resell, rent, redistribute or otherwise transfer the icon without express written permission from iconmonstr.com -->

<!DOCTYPE svg PUBLIC "-//W3C//DTD SVG 1.1//EN" "http://www.w3.org/Graphics/SVG/1.1/DTD/svg11.dtd">
<svg version="1.1" xmlns="http://www.w3.org/2000/svg" xmlns:xlink="http://www.w3.org/1999/xlink" x="0px" y="0px"
	 width="512px" height="512px" viewBox="0 0 512 512" enable-background="new 0 0 512 512" xml:space="preserve">
<path id="shipping-box-12-icon" d="M374.14,319.814l4.615-2.687v23.617l-4.615,2.687V319.814z M366.286,348.006l4.614-2.688v-23.616
	l-4.694,2.733L366.286,348.006z M400.688,327.978l4.695-2.734v-23.616l-4.695,2.734V327.978z M462,186.415v158.29l-131.156,76.36
	l-164.816-95.978V166.797l131.396-75.862L462,186.415z M272.922,132.884l128.279,75.725l26.13-14.471l-129.938-75.383
	L272.922,132.884z M318.026,268.397l-128.208-74.213V311.25l128.208,74.517V268.397z M355.94,233.675l-126.639-75.606
	l-26.826,15.487l127.994,74.226L355.94,233.675z M437.98,215.764l-23.087,12.786v42.9l-0.155,0.086v0.182l-45.19,24.946v-0.152
	l-0.155,0.086v-42.85l-27.289,15.113V386.68l95.877-55.818V215.764z M385.188,337l4.619-2.689v-23.616l-4.619,2.689V337z
	 M412.13,321.315l3.885-2.262l0.729-0.43v-23.612l-4.614,2.687V321.315z M392.913,332.502l4.615-2.687v-23.616l-4.615,2.687V332.502
	z M66.361,194.379h75.126v24H74.361L66.361,194.379z M50,233.712h91.487v24H58L50,233.712z M98.311,297.046l-8-24h51.177v24H98.311z
	"/>
</svg>
