<?xml version="1.0" encoding="utf-8"?>

<!-- License Agreement at http://iconmonstr.com/license/ -->

<!DOCTYPE svg PUBLIC "-//W3C//DTD SVG 1.1//EN" "http://www.w3.org/Graphics/SVG/1.1/DTD/svg11.dtd">
<svg version="1.1" xmlns="http://www.w3.org/2000/svg" xmlns:xlink="http://www.w3.org/1999/xlink" x="0px" y="0px"
	 width="512px" height="512px" viewBox="0 0 512 512" enable-background="new 0 0 512 512" xml:space="preserve">
<path id="lifebuoy-2-icon" d="M455.106,203.042c-5.443-24.103-6.283-42.576-7.146-57.862c-2.855-50.661-27.115-81.957-83.947-82.874
	c-15.606-0.252-34.279-0.611-60.445-6.787c-32.551-7.689-67.829-7.56-101.924,1.742c-22.064,4.494-38.513,4.82-52.484,5.045
	c-56.832,0.917-81.092,32.213-83.947,82.874c-0.711,12.612-1.419,27.409-4.696,45.731c-13.61,40.869-14.434,86.857,0.004,130.206
	c3.275,18.311,3.981,33.098,4.692,45.704c2.855,50.66,27.115,81.957,83.947,82.874c13.983,0.226,30.447,0.552,52.54,5.057
	c33.255,9.067,68.442,9.619,101.87,1.719l-0.002,0.012c26.166-6.175,44.839-6.535,60.445-6.787
	c56.832-0.917,81.092-32.214,83.947-82.874c0.859-15.248,1.701-33.669,7.107-57.683C464.29,274.494,464.325,237.756,455.106,203.042
	z M434.776,153.608c-18.672-32.534-45.979-59.506-78.825-77.771C418.129,78.405,430.313,99.449,434.776,153.608z M330.953,330.953
	c-41.387,41.388-108.452,41.458-149.906,0c-41.395-41.395-41.441-108.465,0-149.906c41.416-41.416,108.48-41.428,149.906,0
	C372.344,222.435,372.4,289.511,330.953,330.953z M336.258,93.675l-24.811,43.557c-34.916-16.342-75.943-16.355-110.895,0.001
	l-24.811-43.558C225.17,69.181,285.161,68.353,336.258,93.675z M155.97,75.889c-32.024,17.828-58.775,43.943-77.392,75.424
	C82.632,98.825,97.19,78.286,155.97,75.889z M93.555,175.988l43.562,24.814c-16.287,34.993-16.457,76.8,1.078,112.647
	l-43.523,24.791C69.202,288.408,68.058,227.639,93.555,175.988z M78.579,360.696c18.623,31.487,45.386,57.593,77.403,75.415
	C97.165,433.699,82.616,413.173,78.579,360.696z M177.02,418.949l24.828-43.587c34.195,15.547,74.063,15.566,108.305-0.001
	l24.828,43.588C286.028,442.725,227.216,443.329,177.02,418.949z M355.934,436.163c32.827-18.248,60.153-45.196,78.841-77.743
	C430.24,413.269,417.528,433.631,355.934,436.163z M417.328,338.241l-43.522-24.791c17.503-35.786,17.394-77.589,1.077-112.647
	l43.562-24.814C443.108,225.949,443.651,286.738,417.328,338.241z"/>
</svg>
