<?xml version="1.0" encoding="utf-8"?>

<!-- The icon can be used freely in both personal and commercial projects with no attribution required, but always appreciated. 
You may NOT sub-license, resell, rent, redistribute or otherwise transfer the icon without express written permission from iconmonstr.com -->

<!DOCTYPE svg PUBLIC "-//W3C//DTD SVG 1.1//EN" "http://www.w3.org/Graphics/SVG/1.1/DTD/svg11.dtd">
<svg version="1.1" xmlns="http://www.w3.org/2000/svg" xmlns:xlink="http://www.w3.org/1999/xlink" x="0px" y="0px"
	 width="512px" height="512px" viewBox="0 0 512 512" enable-background="new 0 0 512 512" xml:space="preserve">
<path id="shipping-box-9-icon" d="M407.202,335.083l-4.84,2.818v-29.426l5.75-3.348v29.42L407.202,335.083z M464.499,169.819
	v197.225l-163.417,95.143L95.726,342.603v-87.363l-48.225-28.291l48.114-81.772l117.611-67.714
	c8.613,4.326,17.234,11.634,23.056,21.404l-95.144,54.932l159.478,92.482l120.687-66.838l-42.418-24.609l21.145-22.415
	L464.499,169.819z M247.945,310.049l0.142-0.207l29.108-42.543l-162.75-94.333L88.528,216.3L247.945,310.049z M285.112,308.875
	l-27.88,41.113L125.369,272.63v52.73l159.743,92.846V308.875z M434.571,206.388l-119.459,66.158v146.799l119.459-69.549V206.388z
	 M393.956,313.37l-5.851,3.406v29.426l5.851-3.406V313.37z M350.992,367.808v-29.426l-5.85,3.406l0.1,29.369L350.992,367.808z
	 M384.169,319.067l-5.75,3.348v29.426l5.75-3.348V319.067z M360.778,332.685l-5.75,3.348v29.426l5.75-3.348V332.685z
	 M374.55,324.667l-5.756,3.352v29.426l5.756-3.352V324.667z M272.197,125.372h-32.135l64.691,64.805l64.692-64.805h-32.135
	c0,0-16.615-78.323-126.732-75.483C280.195,78.049,272.197,125.372,272.197,125.372z"/>
</svg>
