<?xml version="1.0" encoding="utf-8"?>

<!-- The icon can be used freely in both personal and commercial projects with no attribution required, but always appreciated. 
You may NOT sub-license, resell, rent, redistribute or otherwise transfer the icon without express written permission from iconmonstr.com -->

<!DOCTYPE svg PUBLIC "-//W3C//DTD SVG 1.1//EN" "http://www.w3.org/Graphics/SVG/1.1/DTD/svg11.dtd">
<svg version="1.1" xmlns="http://www.w3.org/2000/svg" xmlns:xlink="http://www.w3.org/1999/xlink" x="0px" y="0px"
	 width="512px" height="512px" viewBox="0 0 512 512" enable-background="new 0 0 512 512" xml:space="preserve">
<path id="password-5-icon" d="M353.718,366.267c0,6.628,5.373,12,12,12h13.308v25H288.41v-25h13.308c6.627,0,12-5.372,12-12V145.733
	c0-6.627-5.373-12-12-12H288.41v-25h90.615v25h-13.308c-6.627,0-12,5.373-12,12V366.267z M283.718,304H90v-98h193.718v-40H50v178
	h233.718V304z M383.718,166v40H422v98h-38.282v40H462V166H383.718z"/>
</svg>
