<?xml version="1.0" encoding="utf-8"?>


<!-- The icon can be used freely in both personal and commercial projects with no attribution required, but always appreciated. 
You may NOT sub-license, resell, rent, redistribute or otherwise transfer the icon without express written permission from iconmonstr.com -->


<!DOCTYPE svg PUBLIC "-//W3C//DTD SVG 1.1//EN" "http://www.w3.org/Graphics/SVG/1.1/DTD/svg11.dtd">

<svg version="1.1" xmlns="http://www.w3.org/2000/svg" xmlns:xlink="http://www.w3.org/1999/xlink" x="0px" y="0px"

	 width="512px" height="512px" viewBox="0 0 512 512" enable-background="new 0 0 512 512" xml:space="preserve">

<path id="download-10-icon" d="M406.104,227.64c-4.444-55.967-51.268-100-108.376-100c-38.817,0-72.878,20.348-92.114,50.953

	c-36.182-20.457-82.326,3.611-85.217,45.898C80.729,229.349,50,263.132,50,304.114c0,44.318,35.928,80.246,80.246,80.246h251.508

	c44.318,0,80.246-35.928,80.246-80.246C462,268.286,438.516,237.952,406.104,227.64z M265.999,352.251l-68.698-68.811h33.214

	v-71.197h70.97v71.197h33.215L265.999,352.251z"/>

</svg>

