<?xml version="1.0" encoding="utf-8"?>

<!-- The icon can be used freely in both personal and commercial projects with no attribution required, but always appreciated. 
You may NOT sub-license, resell, rent, redistribute or otherwise transfer the icon without express written permission from iconmonstr.com -->

<!DOCTYPE svg PUBLIC "-//W3C//DTD SVG 1.1//EN" "http://www.w3.org/Graphics/SVG/1.1/DTD/svg11.dtd">
<svg version="1.1" xmlns="http://www.w3.org/2000/svg" xmlns:xlink="http://www.w3.org/1999/xlink" x="0px" y="0px"
	 width="512px" height="512px" viewBox="0 0 512 512" enable-background="new 0 0 512 512" xml:space="preserve">
<path id="shipping-box-13-icon" d="M394.883,296.776c0-12.548,0-52.283,0-58.98c0-26.32,34.877-26.91,34.877,0
	c0,7.05,0,52.78,0,73.967c0,13.676-1.229,20.243-9.841,35.912c-13.604,24.747-38.495,65.359-38.495,114.325H295.56
	c0,0-9.59-30.203-13.095-50.51c-7.047-40.804,2.173-59.59,19.055-76.995c17.531-18.078,26.213-26.617,34.245-34.937
	c18.56-19.232,43.813,3.341,29.089,20.983c-8.031,9.622-27.889,30.96-32.635,37.265c-4.607,6.123,3.967,14.71,10.711,7.669
	c9.839-10.273,32.703-35.744,40.593-44.934C391.12,311.688,394.883,306.328,394.883,296.776z M117.117,296.776
	c0-12.548,0-52.283,0-58.98c0-26.32-34.877-26.91-34.877,0c0,7.05,0,52.78,0,73.967c0,13.676,1.229,20.243,9.841,35.912
	c13.604,24.747,38.495,59.415,38.495,114.325h85.864c0,0,9.59-30.203,13.096-50.51c7.046-40.804-2.174-59.59-19.056-76.995
	c-17.531-18.078-26.213-26.617-34.245-34.937c-18.56-19.232-43.813,3.341-29.089,20.983c8.031,9.622,27.889,30.96,32.635,37.265
	c4.607,6.123-3.967,14.71-10.711,7.669c-9.839-10.273-32.703-35.744-40.593-44.934C120.88,311.688,117.117,306.328,117.117,296.776z
	 M302.306,228.18l3.591-2.092v18.386l-3.591,2.092V228.18z M296.19,250.127l3.594-2.095v-18.383l-3.655,2.128L296.19,250.127z
	 M322.974,234.536l3.653-2.13V214.02l-3.653,2.128V234.536z M370.702,124.331v123.224l-102.104,59.446l-128.307-74.716V109.058
	L242.582,50L370.702,124.331z M223.506,82.656l99.867,58.952l20.339-11.267L242.559,71.657L223.506,82.656z M258.621,188.152
	l-99.807-57.771v91.131l99.807,58.011V188.152z M288.137,161.122l-98.588-58.859l-20.884,12.057l99.642,57.783L288.137,161.122z
	 M352.004,147.177l-17.973,9.956v33.396l-0.122,0.065v0.144l-35.178,19.419v-0.117l-0.122,0.066v-33.358l-21.244,11.765v91.722
	l74.639-43.455V147.177z M310.905,241.558l3.597-2.093v-18.388l-3.597,2.097V241.558z M331.878,229.349l3.026-1.762l0.568-0.336
	v-18.38l-3.595,2.092V229.349z M316.918,238.059l3.594-2.091V217.58l-3.594,2.092V238.059z"/>
</svg>
